A DiGrX release.


The Penguins of Madagascar Season 2 HDTV + DVDRip + WEB-DL XviD DiGrX

All Episodes in XviD DVDRip + HDTV + WEB-DL


This is a DiGrX release of The Penguins of Madagascar 2nd Season with many 
episodes from DVDRips - WEB-DLs & HDTVs, and some Extras. In this release there are many 
fixes like the equalization of all the episodes in Aspect Ratio, Dimension 
and Audio Volume.

         ||
         ||
         /

Codec ID, Format: XVID, MPEG-4
Aspect ratio, Dimension: 4:3, 640x480
Audio: MP3, 2 Channels


All 2nd Season 68 episodes in XviD and Aspect ratio: 4:3.
The most episodes are HDTVs (separated), the other episodes are replenished 
with the DVDRip or WEB-DL* ones, you can spot them from the name.

*WEB-DL = look alike the DVDRip


+Extras:
-The Penguins of Madagascar 2x51 The Return of the Revenge of Dr. Blowhole HDTV        [16:9 - 624x352]
-The Penguins of Madagascar 2x51 The Return of the Revenge of Dr. Blowhole Pt1 DVDRip  [16:9 - 720x400]
-The Penguins of Madagascar 2x51 The Return of the Revenge of Dr. Blowhole Pt2 DVDRip  [16:9 - 720x400]


Season 2 Episode 1 example:

Complete name                            : 2x01 The Penguins of Madagascar - The Red Squirrel DVDRip.avi
Format                                   : AVI
Format/Info                              : Audio Video Interleave
File size                                : 87.1 MiB
Duration                                 : 10mn 59s
Overall bit rate mode                    : Variable
Overall bit rate                         : 1 107 Kbps
Writing application                      : MEncoder r33883
Writing library                          : MPlayer

Video
ID                                       : 0
Format                                   : MPEG-4 Visual
Format profile                           : Simple@L3
Format settings, BVOP                    : No
Format settings, QPel                    : No
Format settings, GMC                     : No warppoints
Format settings, Matrix                  : Default (H.263)
Codec ID                                 : XVID
Codec ID/Hint                            : XviD
Duration                                 : 10mn 59s
Bit rate                                 : 972 Kbps
Width                                    : 640 pixels
Height                                   : 480 pixels
Display aspect ratio                     : 4:3
Frame rate                               : 25.000 fps
Color space                              : YUV
Chroma subsampling                       : 4:2:0
Bit depth                                : 8 bits
Scan type                                : Progressive
Compression mode                         : Lossy
Bits/(Pixel*Frame)                       : 0.127
Stream size                              : 76.5 MiB (88%)
Writing library                          : XviD 63

Audio
ID                                       : 1
Format                                   : MPEG Audio
Format version                           : Version 1
Format profile                           : Layer 3
Mode                                     : Joint stereo
Mode extension                           : MS Stereo
Codec ID                                 : 55
Codec ID/Hint                            : MP3
Duration                                 : 10mn 59s
Bit rate mode                            : Variable
Bit rate                                 : 122 Kbps
Channel(s)                               : 2 channels
Sampling rate                            : 48.0 KHz
Compression mode                         : Lossy
Stream size                              : 9.57 MiB (11%)
Alignment                                : Aligned on interleaves
Interleave, duration                     : 24 ms (0.60 video frame)
Interleave, preload duration             : 555 ms




---------------------------------------------------------------------------------

The Penguins of Madagascar is a spin-off of the Madagascar films. The series follows the adventures of the four penguin protagonists: Skipper, Kowalski, Rico, and Private, who perform various paramilitary-like missions to protect their home in the Central Park Zoo. The penguins often have to deal with problems caused, or made worse, by King Julien XIII (a ring-tailed lemur), Maurice (an aye-aye), and Mort (a mouse lemur).


---------------------------------------------------------------------------------

Please keep seeding!